<svg width="40" height="40" viewBox="0 0 40 40" fill="none" xmlns="http://www.w3.org/2000/svg">
<rect x="0.416667" y="0.416667" width="39.1667" height="39.1667" rx="19.5833" stroke="#CBD5E1" stroke-width="0.833333"/>
<path d="M12.5 14.5833H27.5M23.3797 14.5833L22.8109 13.4098C22.433 12.6302 22.244 12.2404 21.9181 11.9973C21.8458 11.9434 21.7693 11.8954 21.6892 11.8539C21.3283 11.6667 20.8951 11.6667 20.0287 11.6667C19.1407 11.6667 18.6967 11.6667 18.3297 11.8618C18.2484 11.905 18.1708 11.9549 18.0977 12.011C17.768 12.2639 17.5839 12.6679 17.2155 13.476L16.7108 14.5833" stroke="#64748B" stroke-width="1.25" stroke-linecap="round"/>
<path d="M26.25 14.5833L25.7336 22.9376C25.6016 25.072 25.5357 26.1393 25.0007 26.9066C24.7361 27.2859 24.3956 27.6061 24.0006 27.8467C23.2017 28.3333 22.1325 28.3333 19.9939 28.3333C17.8526 28.3333 16.7819 28.3333 15.9825 27.8458C15.5873 27.6048 15.2467 27.284 14.9822 26.904C14.4474 26.1355 14.3829 25.0668 14.2538 22.9293L13.75 14.5833" stroke="#64748B" stroke-width="1.25" stroke-linecap="round"/>
<path d="M17.9167 23.75V18.75" stroke="#64748B" stroke-width="1.25" stroke-linecap="round"/>
<path d="M22.0833 23.75V18.75" stroke="#64748B" stroke-width="1.25" stroke-linecap="round"/>
</svg>
